<?xml version="1.0" standalone="no"?>
<!DOCTYPE svg PUBLIC "-//W3C//DTD SVG 20010904//EN"
 "http://www.w3.org/TR/2001/REC-SVG-20010904/DTD/svg10.dtd">
<svg version="1.0" xmlns="http://www.w3.org/2000/svg"
 width="488.000000pt" height="1280.000000pt" viewBox="0 0 488.000000 1280.000000"
 preserveAspectRatio="xMidYMid meet">
<metadata>
Created by potrace 1.15, written by Peter Selinger 2001-2017
</metadata>
<g transform="translate(0.000000,1280.000000) scale(0.100000,-0.100000)"
fill="#393b3f" stroke="none">
<path d="M2045 12666 c-16 -7 -39 -23 -50 -36 -19 -21 -20 -34 -16 -231 3
-206 3 -209 -18 -209 -14 0 -23 8 -27 28 -14 57 -53 76 -102 48 -81 -44 -83
-192 -3 -239 64 -37 111 -11 111 62 0 38 2 42 23 39 22 -3 22 -5 28 -208 6
-197 4 -219 -22 -220 -3 0 -11 18 -18 40 -30 102 -161 33 -161 -85 0 -64 42
-121 97 -131 48 -9 73 16 73 73 0 35 3 43 18 43 17 0 20 -13 25 -137 11 -218
9 -283 -7 -283 -8 0 -17 12 -21 27 -9 39 -23 53 -52 53 -68 0 -119 -68 -110
-146 6 -56 29 -90 73 -112 32 -15 38 -15 62 -1 22 12 28 23 30 62 5 74 41 56
42 -21 0 -12 11 -39 24 -60 14 -20 47 -98 74 -172 l49 -135 -13 -835 c-43
-2737 -54 -3433 -54 -3497 l0 -73 -49 0 c-55 0 -71 20 -43 52 13 16 12 19 -11
29 -30 13 -90 5 -106 -15 -9 -10 -8 -15 4 -20 15 -5 22 -56 8 -56 -28 -1 -236
-34 -323 -51 -142 -28 -354 -99 -450 -150 -213 -114 -344 -265 -410 -474 -17
-53 -24 -104 -27 -205 -6 -166 12 -284 97 -628 78 -318 93 -411 93 -562 0
-152 -26 -299 -83 -464 -58 -168 -111 -283 -319 -698 -292 -582 -373 -815
-401 -1165 -28 -354 79 -789 263 -1066 266 -399 862 -656 1687 -727 183 -16
655 -13 845 5 539 51 995 188 1300 391 107 71 246 200 315 293 98 134 212 411
260 636 31 142 39 438 16 590 -46 315 -126 524 -421 1110 -265 527 -338 722
-366 985 -22 204 6 355 139 731 44 123 88 259 97 303 35 158 6 291 -85 390
-99 107 -197 116 -500 46 -297 -68 -478 -67 -623 6 -65 33 -167 113 -206 162
l-29 38 -7 259 c-3 143 -17 1003 -31 1910 -13 908 -28 1898 -34 2200 l-9 550
55 150 c31 82 64 160 75 173 12 16 19 41 19 68 0 58 25 61 33 3 6 -47 31 -79
61 -79 54 0 116 72 116 134 0 67 -57 136 -111 136 -30 0 -59 -31 -59 -62 0
-10 -7 -18 -15 -18 -12 0 -15 18 -15 103 0 57 3 152 7 210 5 95 8 107 25 107
15 0 18 -8 18 -43 0 -58 25 -82 74 -73 97 18 129 166 50 235 -55 49 -108 38
-120 -25 -5 -25 -11 -34 -23 -32 -17 4 -17 2 -13 283 l2 145 25 0 c23 0 25 -4
25 -43 0 -73 57 -101 114 -56 78 61 73 190 -8 234 -49 27 -82 15 -97 -35 -9
-29 -18 -40 -32 -40 -18 0 -19 8 -15 203 3 228 -1 245 -67 273 -48 20 -725 20
-770 0z"/>
</g>
</svg>
