<?xml version="1.0" standalone="no"?>
<!DOCTYPE svg PUBLIC "-//W3C//DTD SVG 20010904//EN"
 "http://www.w3.org/TR/2001/REC-SVG-20010904/DTD/svg10.dtd">
<svg version="1.0" xmlns="http://www.w3.org/2000/svg"
 width="1064.000000pt" height="1280.000000pt" viewBox="0 0 1064.000000 1280.000000"
 preserveAspectRatio="xMidYMid meet">
<metadata>
Created by potrace 1.15, written by Peter Selinger 2001-2017
</metadata>
<g transform="translate(0.000000,1280.000000) scale(0.100000,-0.100000)"
fill="#393b3f" stroke="none">
<path d="M7695 12794 c-166 -27 -324 -90 -438 -177 -44 -33 -140 -133 -265
-277 -436 -499 -1255 -1420 -2686 -3020 -351 -393 -652 -728 -667 -745 l-28
-29 -124 25 -125 26 -128 -308 c-127 -303 -130 -309 -199 -388 l-70 -80 -87
-1 c-52 0 -88 -4 -90 -11 -3 -9 -231 -26 -1180 -85 l-276 -17 -131 33 c-72 18
-133 32 -135 29 -2 -2 -21 -109 -43 -236 l-40 -232 51 -15 c28 -8 79 -22 113
-32 l61 -17 -33 -78 c-58 -134 -181 -370 -243 -464 -101 -152 -154 -196 -302
-244 -133 -44 -389 -81 -557 -81 l-73 0 2 -467 3 -466 595 -217 c327 -119 701
-256 830 -305 129 -48 250 -92 268 -98 39 -12 39 -17 7 -65 l-25 -38 70 -969
c39 -534 73 -1024 77 -1090 5 -106 8 -122 27 -137 l21 -17 -23 -24 c-31 -33
-62 -118 -62 -172 0 -108 73 -214 167 -241 48 -14 58 -14 106 0 57 16 111 64
143 126 19 37 26 151 12 202 -7 25 -3 29 72 73 l80 47 0 1024 c0 563 4 1024 8
1024 9 0 709 -269 1014 -389 l208 -82 0 -538 c0 -296 -3 -781 -7 -1079 l-6
-542 -117 0 -118 0 -10 -72 c-6 -40 -19 -128 -28 -195 -9 -67 -20 -126 -23
-132 -4 -6 -74 -20 -156 -31 -322 -45 -443 -87 -414 -142 6 -11 7 -32 4 -48
-9 -39 19 -95 60 -120 38 -24 85 -25 175 -5 86 19 91 18 53 -5 -31 -18 -42
-47 -26 -64 4 -4 6 -27 4 -52 -2 -41 1 -48 38 -86 l42 -41 85 7 86 6 -6 -34
c-9 -47 15 -100 56 -126 27 -18 44 -21 98 -16 68 5 253 48 389 91 72 23 80 28
83 53 3 31 3 31 83 -2 59 -25 63 -26 348 -26 l287 0 0 330 0 330 454 908 454
909 31 0 c17 0 31 -3 31 -6 0 -5 145 -1614 215 -2390 19 -211 35 -387 35 -392
0 -5 24 -21 53 -35 97 -49 118 -79 83 -121 -64 -76 -73 -223 -19 -311 55 -89
152 -131 238 -102 53 17 118 86 138 145 35 103 13 207 -60 284 l-45 46 38 32
c22 20 48 33 64 33 24 0 29 6 38 42 34 136 72 683 107 1558 21 521 19 769 -9
1210 l-4 66 251 126 c496 249 782 431 832 529 11 21 15 67 15 187 l0 159 53 7
c266 35 735 159 957 253 207 88 311 167 401 304 l54 83 7 -95 c22 -287 148
-2050 148 -2071 0 -19 9 -29 40 -43 22 -10 40 -20 40 -22 0 -2 -14 -29 -32
-60 -122 -216 127 -456 351 -339 39 21 98 86 116 128 30 73 14 189 -33 242
-12 13 -13 20 -5 23 7 2 23 13 37 24 l26 20 0 1324 0 1324 57 -20 c157 -54
297 -60 393 -18 59 26 78 45 168 164 41 55 113 138 159 183 l84 84 9 171 c9
162 31 591 65 1267 8 162 18 337 21 388 l6 92 -101 0 c-64 0 -101 4 -101 11 0
29 -208 94 -410 129 -191 32 -308 40 -624 40 -276 0 -675 9 -1147 26 l-185 6
-33 89 c-18 48 -30 93 -26 99 3 6 39 27 78 46 116 59 478 259 662 367 895 526
1435 967 1598 1305 50 104 61 205 32 292 -35 104 -249 296 -444 399 -272 142
-501 195 -991 231 -245 18 -351 34 -387 57 -23 16 -135 180 -171 252 -36 73
-37 78 -37 185 0 98 3 118 27 174 41 97 126 216 238 336 125 132 152 185 152
289 0 91 -25 159 -92 249 -119 161 -356 296 -625 354 -69 16 -302 27 -360 18z
m-7342 -6641 c70 -13 86 -20 83 -32 -9 -30 -56 -240 -56 -249 0 -6 36 -22 81
-37 44 -15 78 -29 76 -31 -2 -2 -30 5 -62 16 -78 27 -85 26 -86 -12 -1 -66 -6
-69 -84 -39 l-70 27 -3 187 c-3 216 -16 197 121 170z m528 -101 c9 -25 3 -25
-61 1 l-25 10 25 8 c37 11 52 7 61 -19z m183 -53 l19 -32 -26 7 c-14 3 -39 11
-54 17 l-28 11 30 13 c41 18 38 19 59 -16z m160 -64 c6 -16 -3 -19 -28 -9 -9
3 -13 10 -10 15 8 14 31 11 38 -6z m186 -49 c0 -2 3 -11 6 -20 5 -14 2 -14
-26 -5 -23 9 -28 14 -18 20 14 9 38 12 38 5z m175 -84 c-1 -2 -15 0 -30 4 -26
6 -27 8 -10 20 15 12 20 11 31 -4 7 -9 11 -18 9 -20z m181 -59 c-2 -2 -16 -1
-31 3 -27 7 -27 8 -9 21 16 12 20 11 31 -3 7 -10 11 -19 9 -21z m194 -53 c0
-14 -5 -18 -17 -13 -33 12 -37 16 -17 24 30 12 34 10 34 -11z m150 -44 c0 -24
-2 -24 -31 -14 l-32 11 24 13 c34 19 39 17 39 -10z m138 -41 c16 -35 17 -35
-23 -22 -39 12 -44 21 -17 36 25 15 28 14 40 -14z m176 -51 c4 -15 5 -28 3
-30 -2 -2 -21 1 -42 7 l-39 11 25 19 c33 25 46 24 53 -7z m200 -66 c3 -17 5
-33 3 -34 -2 -3 -70 18 -107 33 -9 3 2 10 30 18 65 19 67 18 74 -17z m154 -53
c7 -14 12 -28 12 -31 0 -6 -30 2 -74 19 l-30 11 30 13 c42 18 49 16 62 -12z
m206 -81 c9 -24 3 -26 -34 -10 -28 11 -31 15 -14 19 34 9 42 7 48 -9z m190
-59 c9 -13 16 -26 16 -29 0 -2 -22 3 -50 12 -54 19 -62 28 -27 35 41 8 45 7
61 -18z m140 -50 c19 -29 19 -29 -23 -14 -32 11 -40 24 -18 32 21 9 24 8 41
-18z m176 -57 c19 -25 20 -30 6 -25 -10 4 -29 10 -42 13 -27 7 -26 6 -18 28 9
25 28 19 54 -16z m235 -96 c-1 -2 -28 4 -60 13 -31 9 -55 19 -52 21 2 2 21 10
43 18 39 13 39 13 56 -18 9 -17 15 -32 13 -34z m179 -12 c-8 -48 -5 -49 78
-15 34 14 63 23 65 21 2 -2 1 -26 -3 -54 l-6 -50 -124 42 c-68 22 -124 43
-124 47 0 6 95 47 113 48 4 1 4 -17 1 -39z m340 -56 c3 -9 6 -29 6 -46 0 -27
2 -30 25 -24 14 3 36 9 50 12 22 5 25 3 25 -20 0 -18 -5 -26 -17 -26 -48 0
-196 21 -211 30 -9 6 -30 15 -47 21 -30 12 -29 12 55 39 103 34 106 34 114 14z
m-211 -1116 c27 -10 27 -10 27 -106 0 -205 -21 -1615 -26 -1768 l-6 -161 -65
26 -65 26 6 205 c4 113 15 448 26 745 11 297 22 619 25 715 9 292 14 343 33
335 10 -4 29 -12 45 -17z m680 -53 c241 -38 557 -114 557 -135 0 -4 -192 -402
-426 -886 l-426 -879 6 115 c3 63 15 273 26 465 11 193 31 555 45 805 23 412
36 540 54 540 3 0 77 -11 164 -25z m-1413 -2595 c0 -5 -8 -10 -19 -10 -10 0
-34 -2 -52 -5 -33 -4 -33 -4 6 9 49 18 65 19 65 6z"/>
</g>
</svg>
