<?xml version="1.0" standalone="no"?>
<!DOCTYPE svg PUBLIC "-//W3C//DTD SVG 20010904//EN"
 "http://www.w3.org/TR/2001/REC-SVG-20010904/DTD/svg10.dtd">
<svg version="1.0" xmlns="http://www.w3.org/2000/svg"
 width="27.136025pt" height="21.916342pt" viewBox="0 0 27.136025 21.916342"
 preserveAspectRatio="xMidYMid meet">
<metadata>
Created by potrace 1.12, written by Peter Selinger 2001-2015
</metadata>
<g transform="translate(-1.332942,25.958171) scale(0.100000,-0.100000)"
fill="#000000" stroke="none">
<path d="M41 235 c-39 -50 -39 -120 0 -170 31 -39 42 -30 14 11 -16 23 -25 51
-25 74 0 23 9 51 25 74 28 41 17 50 -14 11z"/>
<path d="M245 225 c33 -49 33 -101 0 -150 -29 -42 -12 -43 19 -1 39 52 19 167
-32 184 -7 2 -1 -13 13 -33z"/>
<path d="M74 209 c-25 -27 -25 -91 0 -118 28 -30 41 -26 17 5 -27 34 -27 74 0
108 24 31 11 35 -17 5z"/>
<path d="M209 204 c27 -34 27 -74 0 -108 -24 -31 -11 -35 17 -5 25 27 25 91 0
118 -28 30 -41 26 -17 -5z"/>
<path d="M100 181 c-14 -27 -13 -44 4 -67 19 -25 31 -12 14 15 -10 17 -10 25
0 41 15 24 15 30 2 30 -5 0 -14 -9 -20 -19z"/>
<path d="M170 195 c0 -3 6 -14 12 -25 10 -16 10 -24 0 -41 -17 -27 -5 -40 14
-15 17 23 18 40 4 67 -10 17 -30 27 -30 14z"/>
<path d="M134 159 c-10 -17 13 -36 27 -22 12 12 4 33 -11 33 -5 0 -12 -5 -16
-11z"/>
</g>
</svg>
