<svg xmlns="http://www.w3.org/2000/svg" viewBox="0 0 500 500"><g id="freepik--background-complete--inject-11"><path d="M42.18,170.21a731.06,731.06,0,0,1,102.09-12.43c4.29-.23,8.57-.38,12.86-.57s8.58-.22,12.86-.34,8.58-.07,12.87-.1c2.15,0,4.29,0,6.44,0s4.31.15,6.45.32c8.57.67,17.08,1.92,25.54,3.33s16.9,3,25.3,4.74c33.6,7,66.9,15.31,100.1,23.94q24.88,6.51,49.7,13.34t49.49,14.08q-24.76-7-49.62-13.62t-49.74-13.16C313.3,181.22,280,173,246.4,166.13c-8.4-1.69-16.81-3.36-25.26-4.78s-16.93-2.71-25.46-3.4q-3.19-.27-6.39-.34c-2.14,0-4.29,0-6.43,0-4.28,0-8.57-.07-12.85.06s-8.57.12-12.86.29-8.56.31-12.84.52q-25.69,1.28-51.25,4.25C76,164.64,59,167,42.18,170.21Z" style="fill:#ebebeb"></path><path d="M44.92,148c17-.43,34-.71,51-.93s34-.23,51-.23l25.51.09,12.75.09c2.13,0,4.25,0,6.38.09s4.26.13,6.38.29c8.5.56,17,1.49,25.4,2.58s16.86,2.27,25.26,3.6c33.59,5.31,67,11.64,100.38,18.17q25,4.94,50,10.12t49.87,10.72q-25-5.25-50-10.25t-50-9.94C315.47,166,282,159.76,248.44,154.57c-8.39-1.31-16.8-2.55-25.22-3.66s-16.87-2.06-25.33-2.65c-2.12-.17-4.23-.24-6.35-.31s-4.25-.07-6.37-.11l-12.75-.14-25.5-.17q-25.5-.09-51,.06C78.92,147.64,61.92,147.75,44.92,148Z" style="fill:#ebebeb"></path><path d="M48.09,122.38l50.66,4,50.64,4.15,25.32,2.07c8.44.7,16.89,1.32,25.32,2.21,4.22.38,8.42.93,12.63,1.39s8.42,1,12.62,1.5q12.61,1.55,25.2,3.22c33.58,4.51,67.11,9.35,100.63,14.25l50.26,7.45,50.22,7.74L351,155.8c-33.53-4.79-67.07-9.52-100.66-13.92-16.78-2.21-33.58-4.43-50.41-6.24-8.41-.91-16.86-1.57-25.29-2.3l-25.32-2.16-50.62-4.32Z" style="fill:#ebebeb"></path><path d="M52.5,86.72c16.29,4.78,32.72,9.07,49.19,13.15s33,8,49.61,11.48l12.46,2.58,12.49,2.46c4.16.83,8.34,1.55,12.51,2.34s8.35,1.5,12.54,2.13c16.77,2.52,33.65,4.37,50.52,6.21,33.75,3.66,67.56,6.76,101.38,9.73l50.74,4.28,50.76,4.17-50.8-3.69q-25.38-2-50.76-4.11c-33.83-2.85-67.65-5.85-101.42-9.4q-12.67-1.34-25.31-2.91c-8.43-1-16.85-2.14-25.24-3.44-4.2-.64-8.39-1.38-12.56-2.18s-8.35-1.53-12.51-2.38l-12.48-2.5L151.15,112C118,104.83,85,96.54,52.5,86.72Z" style="fill:#ebebeb"></path><path d="M56.67,53q22.89,12,46.44,22.55c15.66,7.12,31.52,13.84,47.67,19.76s32.64,11,49.63,13.7,34.08,4.66,51.2,6.29q51.4,4.77,103,6.29c8.6.32,17.2.41,25.8.59l12.91.07,6.45,0,6.45-.06c17.21-.14,34.43-.53,51.56-2.26-17.11,1.89-34.34,2.44-51.55,2.74l-6.45.1h-6.46l-12.91,0c-8.61-.15-17.22-.22-25.82-.5q-51.63-1.38-103.11-6c-17.14-1.69-34.26-3.61-51.25-6.47s-33.57-8-49.72-13.9C118.27,83.9,87.08,69.13,56.67,53Z" style="fill:#ebebeb"></path><path d="M230.46,129.59A5,5,0,1,1,228,122.9,5,5,0,0,1,230.46,129.59Z" style="fill:#ebebeb"></path><rect x="232.16" y="104.58" width="3.85" height="25.33" transform="translate(71.38 -87.86) rotate(24.97)" style="fill:#ebebeb"></rect><path d="M248.33,129.83a5,5,0,1,1-2.44-6.69A5,5,0,0,1,248.33,129.83Z" style="fill:#ebebeb"></path><rect x="250.03" y="104.82" width="3.85" height="25.33" transform="translate(73.15 -95.38) rotate(24.97)" style="fill:#ebebeb"></rect><polygon points="259.03 106.87 236.25 108.02 237.68 104.95 260.46 103.8 259.03 106.87" style="fill:#ebebeb"></polygon><polygon points="256.33 112.65 233.56 113.81 234.99 110.74 257.76 109.58 256.33 112.65" style="fill:#ebebeb"></polygon><path d="M91.25,395.23a7.1,7.1,0,1,1-3.44-9.43A7.12,7.12,0,0,1,91.25,395.23Z" style="fill:#ebebeb"></path><rect x="93.64" y="360" width="5.42" height="35.68" transform="translate(168.5 -5.36) rotate(24.97)" style="fill:#ebebeb"></rect><path d="M116.43,395.57a7.1,7.1,0,1,1-3.44-9.43A7.1,7.1,0,0,1,116.43,395.57Z" style="fill:#ebebeb"></path><rect x="118.83" y="360.34" width="5.42" height="35.68" transform="translate(171.01 -15.96) rotate(24.97)" style="fill:#ebebeb"></rect><polygon points="131.5 363.22 99.41 364.85 101.43 360.52 133.52 358.89 131.5 363.22" style="fill:#ebebeb"></polygon><polygon points="127.71 371.37 95.62 373 97.63 368.67 129.72 367.05 127.71 371.37" style="fill:#ebebeb"></polygon><path d="M416.57,187.6a4.26,4.26,0,1,1-2.07-5.66A4.27,4.27,0,0,1,416.57,187.6Z" style="fill:#ebebeb"></path><rect x="418" y="166.45" width="3.25" height="21.42" transform="translate(114.02 -160.59) rotate(24.97)" style="fill:#ebebeb"></rect><path d="M431.68,187.81a4.26,4.26,0,1,1-2.06-5.66A4.26,4.26,0,0,1,431.68,187.81Z" style="fill:#ebebeb"></path><rect x="433.12" y="166.66" width="3.25" height="21.42" transform="translate(115.51 -166.95) rotate(24.97)" style="fill:#ebebeb"></rect><polygon points="440.73 168.39 421.47 169.36 422.68 166.77 441.94 165.79 440.73 168.39" style="fill:#ebebeb"></polygon><path d="M131.89,108.32a4.26,4.26,0,1,1-2.07-5.66A4.27,4.27,0,0,1,131.89,108.32Z" style="fill:#ebebeb"></path><rect x="133.32" y="87.18" width="3.25" height="21.42" transform="translate(53.94 -47.82) rotate(24.97)" style="fill:#ebebeb"></rect><path d="M147,108.53a4.26,4.26,0,1,1-2.06-5.66A4.25,4.25,0,0,1,147,108.53Z" style="fill:#ebebeb"></path><rect x="148.44" y="87.38" width="3.25" height="21.42" transform="translate(55.44 -54.18) rotate(24.97)" style="fill:#ebebeb"></rect><polygon points="156.05 89.11 136.79 90.09 138 87.49 157.26 86.51 156.05 89.11" style="fill:#ebebeb"></polygon><path d="M360.8,412.79a4.26,4.26,0,1,1-2.06-5.66A4.25,4.25,0,0,1,360.8,412.79Z" style="fill:#ebebeb"></path><rect x="362.24" y="391.64" width="3.25" height="21.42" transform="translate(203.87 -116) rotate(24.97)" style="fill:#ebebeb"></rect><path d="M375.92,413a4.26,4.26,0,1,1-2.06-5.67A4.26,4.26,0,0,1,375.92,413Z" style="fill:#ebebeb"></path><rect x="377.36" y="391.85" width="3.25" height="21.42" transform="translate(205.37 -122.36) rotate(24.97)" style="fill:#ebebeb"></rect><polygon points="384.97 393.57 365.71 394.55 366.92 391.96 386.18 390.98 384.97 393.57" style="fill:#ebebeb"></polygon><path d="M327.89,167.68a5,5,0,1,1-2.44-6.69A5,5,0,0,1,327.89,167.68Z" style="fill:#ebebeb"></path><rect x="329.59" y="142.68" width="3.85" height="25.33" transform="translate(96.57 -125.43) rotate(24.97)" style="fill:#ebebeb"></rect><rect x="347.99" y="143.12" width="3.85" height="7.32" transform="translate(94.68 -134) rotate(24.97)" style="fill:#ebebeb"></rect><polygon points="352.8 145.16 333.69 146.12 335.12 143.05 354.23 142.09 352.8 145.16" style="fill:#ebebeb"></polygon><polygon points="350.1 150.95 330.99 151.9 332.42 148.83 351.53 147.88 350.1 150.95" style="fill:#ebebeb"></polygon><path d="M284.47,368.48a9.69,9.69,0,1,1-11.33-7.72A9.7,9.7,0,0,1,284.47,368.48Z" style="fill:#ebebeb"></path><rect x="272.58" y="320.77" width="7.4" height="48.71" transform="translate(-59.35 57.39) rotate(-10.72)" style="fill:#ebebeb"></rect><rect x="291.73" y="304.07" width="7.4" height="14.08" transform="translate(-52.69 60.35) rotate(-10.71)" style="fill:#ebebeb"></rect><polygon points="298.11 305.35 269.33 328.28 268.12 321.88 296.9 298.95 298.11 305.35" style="fill:#ebebeb"></polygon><polygon points="300.39 317.41 271.61 340.34 270.4 333.94 299.18 311.01 300.39 317.41" style="fill:#ebebeb"></polygon><path d="M388,123.88a3.16,3.16,0,1,1-1.73-4.12A3.17,3.17,0,0,1,388,123.88Z" style="fill:#ebebeb"></path><rect x="388.73" y="108.09" width="2.41" height="15.89" transform="translate(73.22 -139.31) rotate(22.31)" style="fill:#ebebeb"></rect><rect x="400.02" y="107.84" width="2.41" height="4.59" transform="translate(71.83 -144.05) rotate(22.31)" style="fill:#ebebeb"></rect><polygon points="402.98 109.04 391.03 110.19 391.84 108.23 403.79 107.07 402.98 109.04" style="fill:#ebebeb"></polygon><polygon points="401.46 112.74 389.51 113.9 390.32 111.93 402.27 110.78 401.46 112.74" style="fill:#ebebeb"></polygon><path d="M137.73,416.6a3.16,3.16,0,1,1-2.89-3.4A3.16,3.16,0,0,1,137.73,416.6Z" style="fill:#ebebeb"></path><rect x="135.97" y="400.6" width="2.41" height="15.89" transform="matrix(1, 0.08, -0.08, 1, 33.37, -9.73)" style="fill:#ebebeb"></rect><rect x="144.93" y="397.21" width="2.41" height="4.59" transform="translate(32.69 -10.48) rotate(4.62)" style="fill:#ebebeb"></rect><polygon points="147.47 397.92 136.44 402.65 136.61 400.53 147.64 395.8 147.47 397.92" style="fill:#ebebeb"></polygon><polygon points="147.15 401.91 136.12 406.64 136.29 404.52 147.32 399.79 147.15 401.91" style="fill:#ebebeb"></polygon><path d="M114.07,160.75a3.16,3.16,0,1,1-1.72-4.12A3.16,3.16,0,0,1,114.07,160.75Z" style="fill:#ebebeb"></path><rect x="114.78" y="144.96" width="2.41" height="15.89" transform="translate(66.71 -32.58) rotate(22.31)" style="fill:#ebebeb"></rect><rect x="126.06" y="144.71" width="2.41" height="4.59" transform="translate(65.33 -37.31) rotate(22.31)" style="fill:#ebebeb"></rect><polygon points="129.03 145.91 117.08 147.06 117.89 145.1 129.84 143.94 129.03 145.91" style="fill:#ebebeb"></polygon><polygon points="127.51 149.61 115.56 150.77 116.36 148.8 128.31 147.65 127.51 149.61" style="fill:#ebebeb"></polygon><path d="M250.6,168.34a3.16,3.16,0,1,1-1.73-4.13A3.16,3.16,0,0,1,250.6,168.34Z" style="fill:#ebebeb"></path><rect x="251.3" y="152.55" width="2.41" height="15.89" transform="translate(79.81 -83.83) rotate(22.31)" style="fill:#ebebeb"></rect><rect x="262.59" y="152.3" width="2.41" height="4.59" transform="translate(78.42 -88.56) rotate(22.31)" style="fill:#ebebeb"></rect><polygon points="265.55 153.49 253.6 154.65 254.41 152.69 266.36 151.53 265.55 153.49" style="fill:#ebebeb"></polygon><polygon points="264.03 157.2 252.08 158.36 252.89 156.39 264.84 155.23 264.03 157.2" style="fill:#ebebeb"></polygon><path d="M91.21,112.85A4.93,4.93,0,0,1,87,114.19a8.94,8.94,0,0,1-4.27-1.51,7.73,7.73,0,0,1-2.86-3.55,8.62,8.62,0,0,1-.41-4.58,11.94,11.94,0,0,1,4.65-7.79,12.2,12.2,0,0,1,9-1.91A15.06,15.06,0,0,1,101.34,99a13.3,13.3,0,0,1,3.94,8.4,22.52,22.52,0,0,1-1.47,9.17,18.63,18.63,0,0,1-5.3,7.68A16.66,16.66,0,0,1,89.89,128a23.33,23.33,0,0,1-17.58-5.2,21.41,21.41,0,0,1-5.68-7.48,20.75,20.75,0,0,1-1.85-9.22A23,23,0,0,1,67.05,97a29.25,29.25,0,0,1,5.36-7.63,62.92,62.92,0,0,1,6.88-6.1c4.8-3.73,9.84-7,14.33-10.93A43.67,43.67,0,0,0,99.73,66a16.5,16.5,0,0,0,3.44-7.69,7.5,7.5,0,0,0-.54-3.92,4.58,4.58,0,0,0-2.65-2.5,3.9,3.9,0,0,0-3.48.58,7.33,7.33,0,0,0-2.4,3.14,40.68,40.68,0,0,0-1.89,8.58c-.43,3-.79,5.95-1.13,8.94-1.32,12-2.3,24-3.54,36-.65,6-1.34,12-2.23,18-.45,3-1,6-1.61,8.92a29.24,29.24,0,0,1-1.25,4.36,5.76,5.76,0,0,1-3.33,2.93,5.66,5.66,0,0,0,3.18-3,29.39,29.39,0,0,0,1.09-4.37c.57-3,1-5.93,1.36-8.92.73-6,1.26-12,1.75-18,1-12,1.84-24,3-36.07.29-3,.6-6,1-9,.2-1.5.44-3,.72-4.51a22,22,0,0,1,1.25-4.54,9.12,9.12,0,0,1,3-4,5.78,5.78,0,0,1,5.12-.84,6.49,6.49,0,0,1,3.8,3.49,9.25,9.25,0,0,1,.72,4.92,18.13,18.13,0,0,1-3.77,8.67A45,45,0,0,1,95,73.85c-4.6,4-9.65,7.4-14.36,11.07S71.36,92.6,68.86,97.85a21.15,21.15,0,0,0-2.12,8.31,18.82,18.82,0,0,0,1.64,8.36,19.3,19.3,0,0,0,5.15,6.83,21.06,21.06,0,0,0,7.56,4.09,21.88,21.88,0,0,0,8.58.8,14.87,14.87,0,0,0,7.8-3.23c4.46-3.63,6.66-9.76,6.51-15.5a12.13,12.13,0,0,0-3.47-7.68,14.27,14.27,0,0,0-7.58-4A10.63,10.63,0,0,0,80,104.65,8.07,8.07,0,0,0,80.3,109a7.34,7.34,0,0,0,2.64,3.44A8.63,8.63,0,0,0,87.05,114,4.87,4.87,0,0,0,91.21,112.85Z" style="fill:#ebebeb"></path><path d="M82,141a5,5,0,1,1-1.76-6.91A5,5,0,0,1,82,141Z" style="fill:#ebebeb"></path></g><g id="freepik--Shadow--inject-11"><path d="M336.69,449c0,3.68-38.81,6.66-86.69,6.66s-86.69-3-86.69-6.66,38.81-6.67,86.69-6.67S336.69,445.34,336.69,449Z" style="fill:#ebebeb"></path></g><g id="freepik--musical-notes--inject-11"><path d="M219.23,374.25a45.79,45.79,0,1,1-30.65-57.06A45.79,45.79,0,0,1,219.23,374.25Z" style="fill:#455a64"></path><rect x="218.33" y="143.37" width="34.98" height="230.23" transform="translate(84.53 -57.01) rotate(16.76)" style="fill:#455a64"></rect><path d="M380.38,353.2a45.8,45.8,0,1,1-30.65-57.06A45.79,45.79,0,0,1,380.38,353.2Z" style="fill:#455a64"></path><rect x="379.48" y="122.32" width="34.98" height="230.23" transform="translate(85.29 -104.35) rotate(16.75)" style="fill:#455a64"></rect><polygon points="446.8 132.7 243.38 172.69 252.25 143.21 455.67 103.23 446.8 132.7" style="fill:#455a64"></polygon><polygon points="430.07 188.25 226.66 228.24 235.53 198.77 438.94 158.78 430.07 188.25" style="fill:#455a64"></polygon><path d="M55.91,194.71A6.07,6.07,0,1,1,53,186.65,6.08,6.08,0,0,1,55.91,194.71Z" style="fill:#455a64"></path><rect x="57.95" y="164.58" width="4.64" height="30.52" transform="translate(81.43 -8.65) rotate(24.93)" style="fill:#455a64"></rect><path d="M77.44,195a6.07,6.07,0,1,1-2.94-8.06A6.07,6.07,0,0,1,77.44,195Z" style="fill:#455a64"></path><rect x="79.49" y="164.86" width="4.64" height="30.52" transform="translate(83.56 -17.7) rotate(24.94)" style="fill:#455a64"></rect><polygon points="90.32 167.31 62.88 168.72 64.6 165.03 92.04 163.62 90.32 167.31" style="fill:#455a64"></polygon><path d="M147.13,137.18a9.72,9.72,0,1,1-10.08-9.35A9.71,9.71,0,0,1,147.13,137.18Z" style="fill:#37474f"></path><rect x="138.78" y="88.37" width="7.42" height="48.85" transform="translate(-4.16 5.47) rotate(-2.17)" style="fill:#37474f"></rect><rect x="162.84" y="74.87" width="7.42" height="14.12" transform="translate(-2.98 6.35) rotate(-2.17)" style="fill:#37474f"></rect><polygon points="170.07 76.61 138.11 95.06 137.86 88.53 169.82 70.08 170.07 76.61" style="fill:#37474f"></polygon><polygon points="170.53 88.91 138.57 107.36 138.33 100.83 170.28 82.38 170.53 88.91" style="fill:#37474f"></polygon><path d="M415.33,393.1a5.42,5.42,0,1,1-2.06-7.39A5.41,5.41,0,0,1,415.33,393.1Z" style="fill:#37474f"></path><rect x="418.17" y="366.53" width="4.14" height="27.25" transform="translate(240.62 -157.3) rotate(29.39)" style="fill:#37474f"></rect><rect x="438.62" y="368.56" width="4.14" height="7.88" transform="translate(239.51 -168.33) rotate(29.39)" style="fill:#37474f"></rect><polygon points="443.92 371 423.34 370.44 425.13 367.27 445.71 367.82 443.92 371" style="fill:#37474f"></polygon><polygon points="440.55 376.98 419.97 376.43 421.76 373.25 442.34 373.81 440.55 376.98" style="fill:#37474f"></polygon></g><g id="freepik--Character--inject-11"><path d="M42.34,255.23c2.81,2,92.49,29.84,96.57,28.74.45-.13,1.39-4.16,5.44-14.17.19-.48,2.77-1.86,6.71-3.72,14.8-7,48.92-21,48.92-21l-35-51.2-55.18,31.64-14.35,8.23s-41.69,7.91-46.05,9.59S39.53,253.22,42.34,255.23Z" style="fill:#f7a9a0"></path><path d="M42.34,255.24c2.81,2,92.49,29.83,96.57,28.73.45-.13,1.39-4.16,5.44-14.17-13.5-1.43-83.62-16-83.89-24.74-.1-3.45,11.72-6.61,13.85-7.15-11,2.19-22.69,4.61-24.88,5.46C45.09,245.07,39.53,253.22,42.34,255.24Z" style="fill:#263238"></path><path d="M131.11,209.61l4.9,9.8,24.42,48.91s57.1-22.31,74.2-30.12c.55-.25,45.67,53.43,84.19,71.6,29.52,13.93,53.71,7.75,73.46-18l-45.36-36.15c-37.46-32.47-77.08-78.91-107.31-83C206.77,168.13,131.11,209.61,131.11,209.61Z" style="fill:#263238"></path><path d="M142.83,209.58c5.12,9.61,3.78,6.78,8.8,16.45,2.46,4.73,14.87,28.49,16.43,33.28,0,.11-.13.19-.19.1-3-4.09-14.85-28.11-17.22-32.88-4.84-9.76-3.35-7-8.09-16.82A.15.15,0,1,1,142.83,209.58Z" style="fill:#37474f"></path><path d="M139.89,227.19l20.53,41.13s57.12-22.3,74.21-30.12c.55-.25,45.67,53.43,84.18,71.6,29.53,13.93,53.73,7.75,73.46-18l-45.35-36.16c-5-4.3-10-8.84-15-13.49C284.74,238.55,181.34,230.45,139.89,227.19Z" style="fill:#37474f"></path><path d="M64.72,365.62c3.33.92,97.1-4,100.55-6.4.37-.28-.14-4.39.2-15.18,0-.51,2-2.7,5-5.81,11.48-11.67,38.68-36.58,38.68-36.58l-50.52-36L117.8,314.44l-10.63,12.68S70.78,349,67.27,352,61.38,364.69,64.72,365.62Z" style="fill:#f7a9a0"></path><path d="M64.71,365.62c3.34.92,97.11-4,100.56-6.4.37-.28-.14-4.39.21-15.18-13.16,3.32-84,13.92-87.27,5.77-1.29-3.2,8.71-10.25,10.52-11.49C79.13,344.18,69,350.48,67.27,352,63.79,355.13,61.39,364.69,64.71,365.62Z" style="fill:#263238"></path><path d="M404.07,252.32s10.49,36.83-7.56,54.75c-13,12.91-31.43,15.85-47.7,15.13-44.95-2-87.71-51.93-102.73-53.36-7.71-.73-61.5,63.87-61.5,63.87L134,292.45c10.76-11.35,74-89,109.38-92.44,24.21-2.35,90.49,42,91.91,41.28,2.33-1.2,12.57-7.4,12.57-7.4Z" style="fill:#263238"></path><path d="M142.93,286.8c6.25,4.31,12.17,9.09,18.14,13.74s11.86,9.31,17.7,14.06c3.32,2.7,6.62,5.41,9.83,8.22.08.07,0,.18-.11.12-6.19-4.4-12.17-9.07-18.15-13.73s-11.86-9.31-17.72-14c-3.31-2.69-6.67-5.37-9.84-8.21C142.68,286.87,142.81,286.72,142.93,286.8Z" style="fill:#37474f"></path><path d="M366.77,250.09c.06-.21.38-.09.35.11a24.67,24.67,0,0,0,3.58,16.5c3.55,5.44,9.39,9,14.63,12.63.51.34,0,1.13-.56.89a50.53,50.53,0,0,1-9.35-5.64,24.35,24.35,0,0,1-6.63-7.23A21.54,21.54,0,0,1,366.77,250.09Z" style="fill:#37474f"></path><path d="M334.84,245.14c1.26-1.14,2.61-2.2,3.91-3.3,3.08-2.6,6.18-5.21,9.36-7.68.31-.23.73.25.45.51-2.21,2.05-4.52,4-6.79,6q-1.75,1.52-3.52,3a23.31,23.31,0,0,0-3.3,3c-.92,1.18-.2,2.46,1.13,2.84a4.73,4.73,0,0,0,3.47-.64c2.4-1.25,4.46-3.28,6.56-5,1.29-1,2.57-2,3.87-3.06s2.83-2.06,4.21-3.12c.09-.07.21.07.13.14-1.25,1.22-2.44,2.51-3.7,3.72s-2.52,2.41-3.8,3.6-2.46,2.21-3.73,3.26a12.82,12.82,0,0,1-3.6,2.25c-2.13.81-5.54.47-6.14-2.22A3.58,3.58,0,0,1,334.84,245.14Z" style="fill:#37474f"></path><path d="M185.48,317.1c12.94-14.94,48.17-53.19,56.34-59.81a7.71,7.71,0,0,1,5.93-1.57c2.3.33,4.27,1.83,6.18,3.06l6.83,4.4,14,9.07c8.77,5.67,17.49,11.41,26.33,17a185.22,185.22,0,0,0,24.48,13.42c16.32,7.1,36.41,10.7,52.75,1.63a35.14,35.14,0,0,0,15.82-19c2.94-8,3.66-16.72,3.79-25.22q0-3.09,0-6.17c0-.11.16-.12.16,0,.75,15.94,0,34.57-12.4,46.3-13.18,12.46-33.43,12.48-49.82,7.53-18.36-5.55-34.4-16.78-50.34-27.1L257.69,262.5c-2.25-1.46-4.47-3-6.77-4.37s-4.95-2.32-7.27-.65c-7.72,5.55-56.09,58.1-57.8,59.93C185.64,317.63,185.28,317.33,185.48,317.1Z" style="fill:#37474f"></path><path d="M299.36,220.84c-12.74-7.36-25.94-14.09-40-18.76a60.27,60.27,0,0,0-10.84-2.59,22.7,22.7,0,0,0-5.65-.11,31,31,0,0,0-5.51,1.16c-7.17,2.21-13.65,6-19.85,10a207.07,207.07,0,0,0-17.67,13.35c-5.65,4.75-11.16,9.66-16.45,14.79a428.22,428.22,0,0,0-30.21,32.26c5-5.42,10-10.8,15.19-16s10.4-10.41,15.78-15.42c10.78-10,21.92-19.66,34.16-27.75,6.1-4,12.5-7.75,19.43-9.93a24,24,0,0,1,10.63-1.06,67,67,0,0,1,10.66,2.4,174,174,0,0,1,20.52,8C286.27,214.1,292.86,217.38,299.36,220.84Z" style="fill:#37474f"></path><path d="M347.56,184.85a.68.68,0,0,0,.52.73l2.67.18c2.5-6.69,5.17-12,4.46-9.93a37,37,0,0,0-1.83,10.1c1.18.07,3.91.2,5.28.26,2.27-11.76,5.07-20.49,4.87-17.8-.85,10.86-.3,14.35.34,18.07,12.75.61,29.47,1.21,41.57,1.37,1.5-6.51,2.83-13.55,3-13.06,1.59,3.68,1.95,9,1.92,13.11,3.86,0,6.94,0,8.82-.17,0,0,1-5.47,1.14-7.27a39.72,39.72,0,0,0-1.13-13.7c-1.21-4.55-3.36-8.58-5.4-12.7a.26.26,0,0,0-.05-.09s0,0,0,0a40.2,40.2,0,0,1-3.09-8.48.25.25,0,0,0,0-.07,39.33,39.33,0,0,1-.89-6.51c-.43-8-4.55-15-11.57-17.08-13.11-13.4-26.54-7.73-30.74,2.58-.4,1-.8,2.15-1.18,3.41v0c-1.44,4.64-2.76,10.67-4,15.32a0,0,0,0,1,0,0s0,0,0,.05h0a46.48,46.48,0,0,1-1.67,5.38C357.11,157,349.35,161.76,347.56,184.85Z" style="fill:#263238"></path><path d="M401.24,124a14.82,14.82,0,0,1,8,12.2c.36,3.42.52,6.75,1.7,10a35.22,35.22,0,0,0,5.18,8.78c3.21,4.32,5.42,8.63,5.84,14.39s.05,12.73-1.88,18.19c0,0-.05,0-.05,0,1.59-5.53,1.75-13.18.92-19-.91-6.36-4.21-10.35-7.58-15.18a27.07,27.07,0,0,1-4.85-13c-.3-2.89-.21-5.91-1.26-8.64-1.25-3.25-3.81-5.32-6.35-7.16A.34.34,0,0,1,401.24,124Z" style="fill:#263238"></path><path d="M352.71,157.6c3.34-4.56,6.8-8.44,8.81-14.1,1.82-5.15,2.91-10.59,4.76-15.73a.06.06,0,1,1,.12,0c-2.88,9.13-3.56,18.34-9.19,26-3.06,4.18-6.12,8-8.17,13a47.63,47.63,0,0,0-3.36,16.52c0,.2-.25.19-.27,0A39.32,39.32,0,0,1,352.71,157.6Z" style="fill:#263238"></path><path d="M397.42,121.49c.71,2,11.73,4,17.06-3.23s-.58-16.56-9.66-12.75C399.08,107.92,395.9,117.3,397.42,121.49Z" style="fill:#263238"></path><path d="M415.24,108.12a12.36,12.36,0,0,0-7-4.25,7.44,7.44,0,0,0-7.13,2.13,15,15,0,0,0-3.6,7.17,22.9,22.9,0,0,0-.55,4.14,11.38,11.38,0,0,0,.42,4.18,10,10,0,0,1-1.19-4.16,18.37,18.37,0,0,1,.11-4.38,14.52,14.52,0,0,1,3.68-8,8.68,8.68,0,0,1,4-2.35,8.83,8.83,0,0,1,4.57.13A10.91,10.91,0,0,1,415.24,108.12Z" style="fill:#263238"></path><path d="M369.36,186.59c-23.82,6.18-62.34,13.16-69.59,6.69-3.45-3.09-10.28-7.85-11.16-15.87-1.91-17.49,4.92-41.31,11.84-52.19,2.46-3.87,25.26,3.77,25.16,8.67-.22,11.48-5.14,29.9-4.08,30.73,3.92,3.09,29.51,4.28,46.56,6.21C389.48,173.26,380.21,183.77,369.36,186.59Z" style="fill:#f7a9a0"></path><path d="M343.53,194.7,346.91,165s20.72,2.81,32.21,8,7,11.31-4.69,15S343.53,194.7,343.53,194.7Z" style="fill:#FF2758"></path><path d="M353.42,167.58c-.12,4.64-.84,17.2-2.43,25.31,0,0-.21,0-.21,0,.25-6.94,1.8-20.71,2.35-25.31C353.14,167.47,353.43,167.49,353.42,167.58Z" style="fill:#263238"></path><path d="M374.43,187.91c-11.71,3.67-30.9,6.79-30.9,6.79l1.73-15.19,40.55-.29C386,182.52,381.58,185.67,374.43,187.91Z" style="opacity:0.1"></path><path d="M331.89,239.64s72.36,30.53,75.23,30.11c0,0,1.51-38.6-2.36-70.38-4.13-34.05-22.77-30.13-29.9-26.75-8.45,4-27.89,22.35-30,26.34-3.52,6.6.26,16.15.26,16.15Z" style="fill:#FF2758"></path><path d="M406.49,219.18c.3,4.49.49,8.93.62,13.23-.49,0-1,0-1.46,0-3.32,0-6.7.38-10.23.63s-7.18.5-11,.68c-1.89.09-3.83.16-5.79.18l-1.49,0c-.49,0-1,0-1.49-.06a25.9,25.9,0,0,1-3-.3l-.77-.12a7.08,7.08,0,0,1-.77-.17c-.51-.1-1-.25-1.52-.4s-1-.35-1.49-.52-.95-.43-1.41-.66a35.92,35.92,0,0,1-5-3.2c-3.12-2.35-6-4.88-8.94-7.33-2.76-2.36-5.47-4.69-7.91-6.84-.82-2.47-2.85-9.88.05-15.29,0-.08.1-.16.14-.24a13.56,13.56,0,0,1,1.37.84A25.33,25.33,0,0,1,349,201.7a28,28,0,0,1,4.1,4.76,81.83,81.83,0,0,1,5.49,9.92,32.84,32.84,0,0,0,5.88,8.68,15.42,15.42,0,0,0,4,2.86c.38.16.74.32,1.11.45l.54.16.28.08.27.07a11.39,11.39,0,0,0,1.15.17c.2,0,.39.05.59.05H373a16.47,16.47,0,0,0,2.42-.21q1.23-.22,2.46-.57a43.1,43.1,0,0,0,4.94-1.77c3.32-1.37,6.71-3,10.32-4.16a64.18,64.18,0,0,1,11.35-2.73C405.16,219.36,405.83,219.27,406.49,219.18Z" style="opacity:0.1"></path><path d="M407.38,245.79c0,1.35,0,2.69,0,4-.29-.31-.59-.62-.89-.92a18.69,18.69,0,0,0-8.21-5c-3.07-.81-6.39-.49-9.72,0-1.67.24-3.36.54-5.09.81s-3.47.55-5.25.71-3.58.29-5.39.31-3.64,0-5.48-.16a67.44,67.44,0,0,1-10.91-1.62c-.89-.22-1.79-.44-2.67-.71s-1.76-.53-2.61-.83-1.72-.61-2.59-.92-1.68-.69-2.51-1.06a76.82,76.82,0,0,1-11.28-6.15l4.1-7.61,1.85.87,2.28,1,1.11.51,1.15.48c.76.31,1.52.63,2.27,1,.37.17.76.3,1.14.45l1.14.44c.77.29,1.51.63,2.29.9s1.52.53,2.27.83,1.52.57,2.29.8l1.14.4,1.15.37a76.18,76.18,0,0,0,9.37,2.28c3.2.53,6.45.8,9.78,1.08l5.1.39c1.73.12,3.47.25,5.25.43s3.56.39,5.38.69a31.57,31.57,0,0,1,5.38,1.4l.65.26.64.28c.43.18.85.39,1.27.6s.78.48,1.19.7l1.17.71c.72.53,1.48,1,2.2,1.56C406.71,245.27,407,245.52,407.38,245.79Z" style="opacity:0.1"></path><path d="M404.34,196.34c.11.76.23,1.54.33,2.36h-1.41l-2.12-.08c-.71,0-1.43-.1-2.14-.17a30,30,0,0,1-8.58-1.9,28.17,28.17,0,0,1-7.38-4.79c-2.15-1.88-4.11-3.9-6.1-5.84a49,49,0,0,0-6.32-5.41,21.51,21.51,0,0,0-4.14-2.3l1-.78a34.79,34.79,0,0,1,3.79,2.09c2.41,1.53,4.71,3.17,7,4.86s4.49,3.38,6.71,5a39.33,39.33,0,0,0,6.75,4.2c.29.12.56.25.87.37l.93.31c.61.23,1.27.37,1.91.54s1.31.31,2,.47,1.33.25,2,.39C401,195.91,402.66,196.15,404.34,196.34Z" style="opacity:0.1"></path><path d="M403.33,191.09c.19.85.38,1.71.54,2.64-1.77-.19-3.55-.37-5.36-.6a29.84,29.84,0,0,1-8.38-2,23.08,23.08,0,0,1-6.85-5.18c-2-2-3.81-4.2-5.62-6.35-1.64-2-3.23-3.93-4.82-5.84.71-.44,1.41-.81,2-1.11l.61-.27c1.36,2,2.59,4,3.83,6a50.77,50.77,0,0,0,4.85,6.74,17.24,17.24,0,0,0,6.47,4.84,17.77,17.77,0,0,0,1.92.59,19.46,19.46,0,0,0,2,.35,37.14,37.14,0,0,0,4.1.24C400.18,191.16,401.76,191.12,403.33,191.09Z" style="opacity:0.1"></path><path d="M357.94,214.8a67.77,67.77,0,0,1,9.12,4.51c1.45.87,2.84,1.81,4.22,2.79.69.48,1.39.94,2.09,1.4a10.78,10.78,0,0,0,2.33,1.22.06.06,0,1,1,0,.11,14.81,14.81,0,0,1-4.52-1.89c-1.47-.87-2.9-1.82-4.36-2.71-3-1.8-5.9-3.59-9-5.17C357.67,215,357.79,214.74,357.94,214.8Z" style="fill:#263238"></path><path d="M349.06,215.23a75.93,75.93,0,0,1,8.15,2.06c1.34.43,2.64.92,3.93,1.46.62.26,1.24.52,1.85.8s1.3.69,2,1c.07,0,0,.15,0,.12-.65-.26-1.34-.41-2-.63l-2-.66c-1.33-.44-2.66-.86-4-1.32-2.65-.9-5.3-1.78-8-2.59C348.85,215.41,348.92,215.2,349.06,215.23Z" style="fill:#263238"></path><path d="M388.85,188.79c3.26,16.2,7.63,50.67,20.1,57.25,14.6,7.71,17-13.35,16.08-24.61-.76-9.29-14.53-28.86-22.09-38.8C394.93,172.1,384.66,167.94,388.85,188.79Z" style="fill:#f7a9a0"></path><path d="M420.81,204.27l-28.2,10s-6.57-19.84-7-32.44,7.08-11.28,15.52-2.36S420.81,204.27,420.81,204.27Z" style="fill:#FF2758"></path><path d="M392.25,208.7c4.27-1.81,16-6.38,24-8.31.05,0,.12.18.08.2-6.42,2.65-19.59,7-24,8.39C392.27,209,392.17,208.73,392.25,208.7Z" style="fill:#263238"></path><path d="M385,193.08c.82,1.2,2.46,3.12,2.59,3.35-.19-.62-.64-2.91-1.06-5.13a.09.09,0,0,1,.17-.05c1.05,2.13,5.28,20.8,6,23a27.05,27.05,0,0,1,2.61-1c.27-.07.11.2.08.21-.55.34-3,1.72-3.17,1.43-.42-.89-3.85-15.49-4.14-16.42-.14-.22-2.48-4.11-3.12-5.4A0,0,0,0,1,385,193.08Z" style="fill:#263238"></path><path d="M374,180.35l-.42-.28a.17.17,0,0,0,0,.1c-.07-.58-3.47-5-6.21-8.61-3.42-4.47-6.66-8.7-7-9.74-.59-2,.68-13.65.73-14.15l.5.06c0,.12-1.31,12-.75,14,.27.95,3.78,5.53,6.88,9.58C373.36,178.57,374.29,179.93,374,180.35Z" style="fill:#263238"></path><path d="M373.87,142.9c-1.11,5.28-5.76,8.76-10.39,7.79s-7.48-6-6.37-11.32,5.77-8.76,10.4-7.78S375,137.63,373.87,142.9Z" style="fill:#FF2758"></path><path d="M376.47,143.85c-1.24,5.87-6.41,9.75-11.56,8.66s-8.32-6.72-7.09-12.59,6.42-9.74,11.56-8.66S377.71,138,376.47,143.85Z" style="fill:#dbdbdb"></path><path d="M391.35,176.47c-.54,1.35-8.64,9.43-15,8.14-2.07-.42-.27-11.84-.27-11.84l-.06-.87-.83-12.23,15.26-6.77,2.18-.87s0,3.36,0,7.54v.59c0,.24,0,.47,0,.69,0,.62,0,1.26,0,1.89s0,1,0,1.47,0,1-.05,1.51A78.61,78.61,0,0,1,391.35,176.47Z" style="fill:#f7a9a0"></path><path d="M392.59,159.57A24.56,24.56,0,0,1,376,171.9l-.83-12.23,15.26-6.77,2.18-.87S392.63,155.39,392.59,159.57Z" style="fill:#263238"></path><path d="M363.3,136.24c-6.47,20.51,5.09,26.69,9.51,28.08,4,1.26,17.86,5,26.4-14.69s1.05-29.22-8-32.59S369.76,115.72,363.3,136.24Z" style="fill:#f7a9a0"></path><path d="M367.61,134.3a14.84,14.84,0,0,0,1.49,0,2.48,2.48,0,0,0,1.52-.25.77.77,0,0,0,.22-.91,1.92,1.92,0,0,0-1.72-.87,2.83,2.83,0,0,0-1.93.55A.82.82,0,0,0,367.61,134.3Z" style="fill:#263238"></path><path d="M381.72,138a14.77,14.77,0,0,1-1.34-.63,2.42,2.42,0,0,1-1.24-.91.76.76,0,0,1,.22-.91,1.91,1.91,0,0,1,1.92,0,2.81,2.81,0,0,1,1.47,1.37A.82.82,0,0,1,381.72,138Z" style="fill:#263238"></path><path d="M376.05,153.06c-.33.36-.66.85-1.19.92a3.94,3.94,0,0,1-1.59-.3.05.05,0,0,0-.06.08,2,2,0,0,0,1.89.71,1.55,1.55,0,0,0,1.09-1.35C376.21,153,376.1,153,376.05,153.06Z" style="fill:#263238"></path><path d="M370.6,147.13s-.71,2.09-.91,3.1c0,.09.22.19.56.27,0,0,0,0,0,0a4.9,4.9,0,0,0,5-.88.11.11,0,0,0-.12-.17,7.41,7.41,0,0,1-4.64.4c0-.3,1.34-3.54,1.18-3.58a8.94,8.94,0,0,0-2.4.07c1.37-4.39,3.42-8.53,4.72-12.93a.14.14,0,0,0-.26-.11c-2.46,4.18-4.14,9.2-5.66,13.7C367.93,147.57,370.16,147.22,370.6,147.13Z" style="fill:#263238"></path><path d="M371.33,150.45a4.91,4.91,0,0,0,1.64,1.84,2.18,2.18,0,0,0,1.29.32c1-.07,1.17-.93,1.13-1.7a4.92,4.92,0,0,0-.21-1.22A6.21,6.21,0,0,1,371.33,150.45Z" style="fill:#263238"></path><path d="M373,152.29a2.18,2.18,0,0,0,1.29.32c1-.07,1.17-.93,1.13-1.7A2.24,2.24,0,0,0,373,152.29Z" style="fill:#ff9bbc"></path><path d="M369.43,140.45c0-.06-.12,0-.14.07-.43,1.29-1.14,2.69-2.45,2.68,0,0-.06.07,0,.08C368.3,143.6,369.23,141.73,369.43,140.45Z" style="fill:#263238"></path><path d="M367.11,139a3.84,3.84,0,0,0-.25.72,2.37,2.37,0,0,1-.48.37,1.06,1.06,0,0,1-1.11,0c-.68-.45-.6-1.37-.26-2.12,0-.06.07-.07.08,0,.1.54.25,1.12.71,1.27s.86-.13,1.28-.21h0Z" style="fill:#263238"></path><path d="M369,141.84a2.06,2.06,0,0,1-.78.77,1.43,1.43,0,0,1-1.18.06,1.33,1.33,0,0,1-.8-.9,2.32,2.32,0,0,1,0-1.08,5.61,5.61,0,0,1,.19-.62,2.88,2.88,0,0,1,.75-1.12,4.42,4.42,0,0,0-.31.93,5.38,5.38,0,0,0-.13.87c0,.61.11,1.18.55,1.31s.92-.05,1.31-.52a10,10,0,0,0,1-1.59A4.22,4.22,0,0,1,369,141.84Z" style="fill:#263238"></path><path d="M377.37,142.83c0-.05.08.09.07.14-.43,1.29-.71,2.83.34,3.61,0,0,0,.09,0,.07C376.37,146,376.76,144,377.37,142.83Z" style="fill:#263238"></path><path d="M380.11,143a4.4,4.4,0,0,1-.22.73,2.25,2.25,0,0,0,.15.58,1.05,1.05,0,0,0,.89.67c.82.05,1.3-.73,1.49-1.54,0-.06,0-.1-.06-.07-.4.37-.86.74-1.32.59s-.62-.62-.9-.94h0Z" style="fill:#263238"></path><path d="M376.91,144.22a2.12,2.12,0,0,0,.16,1.09,1.5,1.5,0,0,0,.91.76,1.34,1.34,0,0,0,1.18-.24,2.34,2.34,0,0,0,.66-.86,4.44,4.44,0,0,0,.22-.61,2.9,2.9,0,0,0,.08-1.34,4.18,4.18,0,0,1-.32.92,4.84,4.84,0,0,1-.42.78c-.34.5-.79.87-1.23.72s-.7-.6-.73-1.21a10.2,10.2,0,0,1,.16-1.87A4.29,4.29,0,0,0,376.91,144.22Z" style="fill:#263238"></path><path d="M398.26,150c-3.5-.46-2.78-7.86-2.78-7.86s-7-1.45-7.21-12a15.93,15.93,0,0,0,1.35,9s-12.08-3.9-15.12-15.34c0,0,1,5.71,2.53,8,0,0-4.88-2.54-6.53-7.28,0,0-3.41,5.52-5.43,6.82,0,0,5.05-21.52,24.61-15,0,0,12.37,3.47,14.79,14.34S398.26,150,398.26,150Z" style="fill:#263238"></path><path d="M395.46,150.18s6-5.54,8.65-3.24-2.95,11-6.73,11.55a3.64,3.64,0,0,1-4.33-3Z" style="fill:#f7a9a0"></path><path d="M402.45,149.4a.05.05,0,0,1,0,.1c-2.67.45-4.46,2.43-5.89,4.58a2,2,0,0,1,3.05.12c.06.06,0,.14-.09.11a2.25,2.25,0,0,0-2.57.23,10.61,10.61,0,0,0-1.59,1.69c-.16.19-.53,0-.39-.24l0-.06C395.63,152.8,399,149,402.45,149.4Z" style="fill:#263238"></path><path d="M320.61,208.11c-3.39,0-6.24-1.42-8.5-5.93-2.54-5.06,5.68-30,11.11-46.51,1.8-5.46,3.22-9.77,3.84-12.11,1.05-4,1.52-13.81,1.52-13.91l.5,0c0,.41-.47,10-1.54,14-.62,2.36-2,6.68-3.84,12.15-5.08,15.43-13.59,41.25-11.14,46.13,3.78,7.56,9.13,6,16.53,4a71.16,71.16,0,0,1,7.7-1.86c7.73-1.29,11.68-.35,14.86.41,4,.95,6.58,1.58,14.05-3.47,3.78-2.55,7.38-20,7.42-20.17.66-1.84,6.94-5.37,13-8.78,4.25-2.39,8.27-4.65,9.59-5.91,1.82-1.74,4.31-8.16,4.33-8.22l.47.18c-.1.27-2.56,6.58-4.46,8.4-1.36,1.31-5.4,3.58-9.69,6-5.71,3.21-12.19,6.85-12.77,8.49-.14.69-3.67,17.78-7.62,20.44-7.65,5.17-10.36,4.53-14.45,3.55-3.13-.75-7-1.68-14.66-.4a70.64,70.64,0,0,0-7.64,1.84A34,34,0,0,1,320.61,208.11Z" style="fill:#263238"></path><rect x="325.07" y="132.15" width="7.65" height="2.19" transform="translate(490.67 -182.6) rotate(95.07)" style="fill:#FF2758"></rect><path d="M403.23,146.29s3.67-11.35,1.88-18.57c-2-8-10.94-16.37-22.35-13.85,0,0,12.31,2.44,17.66,13.21,2.45,5-1.12,18.56-1.12,18.56Z" style="fill:#dbdbdb"></path><path d="M391,149.38c-1.54,5.87,1.4,11.72,6.55,13.06s10.56-2.32,12.1-8.19-1.4-11.72-6.55-13.06S392.53,143.51,391,149.38Z" style="fill:#dbdbdb"></path><path d="M393.8,149.75c-1.38,5.28,1.26,10.54,5.89,11.75s9.5-2.09,10.88-7.36-1.26-10.54-5.89-11.75S395.18,144.48,393.8,149.75Z" style="fill:#FF2758"></path><path d="M406.84,240.58c6.39,9.47,14.64,5.3,16.71-2.4,4.86-18.09-3.05-50-6.78-58.33-.52-1.18-31.48,6.36-30.4,12.08C387.88,199.93,393.88,221.36,406.84,240.58Z" style="fill:#f7a9a0"></path><path d="M404.51,236.81a52.74,52.74,0,0,1-3.1-4.64c-1-1.6-1.86-3.27-2.72-5s-1.62-3.46-2.31-5.27a45.09,45.09,0,0,1-1.78-5.6c.42.86.76,1.76,1.18,2.61s.78,1.74,1.19,2.59c.82,1.71,1.62,3.43,2.47,5.12Z" style="fill:#263238"></path><path d="M415.89,184.32s2.4-11.83,3.6-19.65c.67-4.36,1.16-11.94.19-15.37-1.46-5.13-10.81-25.65-15.84-23.49-4.55,2,5.73,18.57,5.73,18.57s-8.89-17.68-13.93-14.32,9.06,20.59,9.06,20.59-9.54-18-14.19-13.67c-3.51,3.24,8.38,19.56,8.38,19.56s-8.3-15.38-12.06-12.2c-4.16,3.51,5.88,19.27,5.88,19.27-8.2,9.69-10.12,19.71-6.35,27.58C387,192.44,415.89,184.32,415.89,184.32Z" style="fill:#f7a9a0"></path><path d="M413,150.3c-1-2.12-1.94-4.26-3.09-6.28s-2.38-4-3.72-5.91a39.82,39.82,0,0,0-5.9-6.92c3.68,4,7.92,11.14,9.07,13.16s2.41,4,3.56,6A0,0,0,0,0,413,150.3Z" style="fill:#263238"></path><path d="M405.81,154.59c-1.35-2.64-2.6-5.32-4.07-7.91s-3.08-4.88-4.71-7.35c-.13-.19-.19-.06-.07.13,1.54,2.53,2.76,5,4.27,7.54s3.12,5,4.52,7.63A0,0,0,0,0,405.81,154.59Z" style="fill:#263238"></path><path d="M400.28,159.4a66.69,66.69,0,0,0-7.15-11.62c-.14-.18-.2,0-.07.19,2.45,3.81,4.4,6.79,7.07,11.49C400.18,159.54,400.32,159.48,400.28,159.4Z" style="fill:#263238"></path><path d="M391,136.61a1.81,1.81,0,0,0-.94,1,3.75,3.75,0,0,0-.17,1.41,10.48,10.48,0,0,0,.62,2.81,33.34,33.34,0,0,0,2.43,5.25l1.29,2.31-1.77-2a14.83,14.83,0,0,0-2.52-2.31,4.61,4.61,0,0,0-1.46-.68,1.91,1.91,0,0,0-1.41.2,2.11,2.11,0,0,0-.62,1.23,6.28,6.28,0,0,0-.09,1.63,15.47,15.47,0,0,0,.66,3.33,40.12,40.12,0,0,0,2.68,6.4c.52,1,1.1,2.05,1.64,3.08l1.75,3,.18.32-.25.26a29.23,29.23,0,0,0-4.37,5.89,29.67,29.67,0,0,0-2.86,6.77,24.64,24.64,0,0,0-.84,7.31,25.29,25.29,0,0,0,1.39,7.28,24.05,24.05,0,0,1-1.81-7.25,23.76,23.76,0,0,1,.61-7.51,27.43,27.43,0,0,1,2.76-7,30.21,30.21,0,0,1,4.46-6.13l-.07.58-1.81-3c-.55-1-1.15-2.06-1.66-3.12a41,41,0,0,1-2.67-6.58,15.57,15.57,0,0,1-.66-3.55,6.92,6.92,0,0,1,.13-1.86,2.59,2.59,0,0,1,1.05-1.75,2.71,2.71,0,0,1,2-.23,5.41,5.41,0,0,1,1.68.84,14.56,14.56,0,0,1,2.57,2.51l-.49.34A29.25,29.25,0,0,1,390.2,142a11.07,11.07,0,0,1-.48-2.91,3.48,3.48,0,0,1,.27-1.46A1.84,1.84,0,0,1,391,136.61Z" style="fill:#263238"></path><path d="M339.62,96.16l1.4,36.92c.16,1.11-.53,1.83-1.54,1.62l-18.09-3.83a3,3,0,0,1-2.11-2.4l-1.41-36.92c-.15-1.11.54-1.83,1.55-1.62l18.08,3.83A3,3,0,0,1,339.62,96.16Z" style="fill:#37474f"></path><path d="M337.48,95.69l1.4,36.92c.16,1.1-.54,1.83-1.55,1.62l-18.08-3.84a3,3,0,0,1-2.12-2.39l-1.4-36.92c-.16-1.11.54-1.83,1.55-1.62l18.08,3.83A3,3,0,0,1,337.48,95.69Z" style="fill:#455a64"></path><path d="M332.18,96.24A1.57,1.57,0,1,0,334,95,1.57,1.57,0,0,0,332.18,96.24Z" style="fill:#263238"></path><path d="M299.11,117.36c4.1-8.52,6.46-10.08,6.1-19.11-.24-5.92,3.44-8.62,6.53-3.28,5,8.74,2.06,20.84-.18,24.74Z" style="fill:#f7a9a0"></path><path d="M295.28,144.4s-1.47-13.33,2-22.84c2.39-6.58,9.21-20.31,29.76-24.12,4.87-.91,12.46,1.26,5,5.63-5.28,3.1-9.56,3.48-12.3,5.84,0,0,9.32,3.9,10,8.82a91.4,91.4,0,0,1,.95,13,18.07,18.07,0,0,1-2.41.39s.23,4.66-4.24,10.17Z" style="fill:#f7a9a0"></path><path d="M300.57,115.64c3.21-1.77,10.09-5.41,16.75-6.43,7.4-1.13,21.95-1.32,22.73,4.15.58,4-5,4.57-5,4.57s6,1.19,5.76,4.93c-.25,3.4-4.57,3.58-4.57,3.58s3.54,1.35,2.66,4.58c-1.05,3.89-8.29.42-12.75,3.44C325.16,135.14,300.57,115.64,300.57,115.64Z" style="fill:#f7a9a0"></path><path d="M317.21,117.23a29.78,29.78,0,0,1,17.77.58c.14.06.18.19,0,.17a73.69,73.69,0,0,0-17.8-.68S317.18,117.24,317.21,117.23Z" style="fill:#263238"></path><path d="M318.57,124.66c2.95-.71,11.4-1.09,17.7,1.64.15.06.17.2,0,.18a78.94,78.94,0,0,0-17.72-1.75S318.54,124.67,318.57,124.66Z" style="fill:#263238"></path></g><g id="freepik--Sparkles--inject-11"><path d="M165.38,121.63a8.63,8.63,0,0,1,.5,3.07,8.48,8.48,0,0,1-.5,3.07,8.7,8.7,0,0,1-.5-3.07A8.86,8.86,0,0,1,165.38,121.63Z" style="fill:#263238"></path><path d="M157.23,130a9.86,9.86,0,0,1,6.14,0,9.67,9.67,0,0,1-6.14,0Z" style="fill:#263238"></path><path d="M165.58,138.12a9.64,9.64,0,0,1,0-6.13,9.64,9.64,0,0,1,0,6.13Z" style="fill:#263238"></path><path d="M173.73,129.78a9.67,9.67,0,0,1-6.14,0,8.41,8.41,0,0,1,3.07-.5A8.7,8.7,0,0,1,173.73,129.78Z" style="fill:#263238"></path><path d="M438.43,331.11a9.67,9.67,0,0,1,0,6.14,9.67,9.67,0,0,1,0-6.14Z" style="fill:#263238"></path><path d="M430.28,339.46a8.7,8.7,0,0,1,3.07-.5,8.41,8.41,0,0,1,3.07.5,9.67,9.67,0,0,1-6.14,0Z" style="fill:#263238"></path><path d="M438.63,347.61a8.67,8.67,0,0,1-.5-3.07,8.45,8.45,0,0,1,.5-3.07,8.67,8.67,0,0,1,.5,3.07A8.9,8.9,0,0,1,438.63,347.61Z" style="fill:#263238"></path><path d="M446.78,339.26a8.67,8.67,0,0,1-3.07.5,8.45,8.45,0,0,1-3.07-.5,9.67,9.67,0,0,1,6.14,0Z" style="fill:#263238"></path><path d="M62.69,371.21a8.61,8.61,0,0,1,.5,3.06,8.41,8.41,0,0,1-.5,3.07,9.64,9.64,0,0,1,0-6.13Z" style="fill:#263238"></path><path d="M54.54,379.55a9.67,9.67,0,0,1,6.14,0,8.45,8.45,0,0,1-3.07.5A8.7,8.7,0,0,1,54.54,379.55Z" style="fill:#263238"></path><path d="M62.89,387.7a8.63,8.63,0,0,1-.5-3.07,8.48,8.48,0,0,1,.5-3.07,9.67,9.67,0,0,1,0,6.14Z" style="fill:#263238"></path><path d="M71,379.36a9.67,9.67,0,0,1-6.14,0,9.67,9.67,0,0,1,6.14,0Z" style="fill:#263238"></path><path d="M424.3,196.87a4.09,4.09,0,0,1,.5,2,4,4,0,0,1-.5,2,3.91,3.91,0,0,1-.5-2A4,4,0,0,1,424.3,196.87Z" style="fill:#263238"></path><path d="M418.9,202.39a4.39,4.39,0,0,1,4.07,0,4.39,4.39,0,0,1-4.07,0Z" style="fill:#263238"></path><path d="M424.43,207.79a4,4,0,0,1-.5-2,3.89,3.89,0,0,1,.5-2,4,4,0,0,1,.5,2A4.09,4.09,0,0,1,424.43,207.79Z" style="fill:#263238"></path><path d="M429.83,202.26a4.39,4.39,0,0,1-4.07,0,4.39,4.39,0,0,1,4.07,0Z" style="fill:#263238"></path><path d="M288.22,93.38a4,4,0,0,1,.5,2,3.89,3.89,0,0,1-.5,2,4,4,0,0,1-.5-2A4.09,4.09,0,0,1,288.22,93.38Z" style="fill:#263238"></path><path d="M282.82,98.91a4.39,4.39,0,0,1,4.07,0,4.39,4.39,0,0,1-4.07,0Z" style="fill:#263238"></path><path d="M288.35,104.31a4.16,4.16,0,0,1-.5-2,4,4,0,0,1,.5-2,3.91,3.91,0,0,1,.5,2A4,4,0,0,1,288.35,104.31Z" style="fill:#263238"></path><path d="M293.75,98.78a4.39,4.39,0,0,1-4.07,0,4.39,4.39,0,0,1,4.07,0Z" style="fill:#263238"></path><path d="M94.48,394.27a4.39,4.39,0,0,1,0,4.07,4.39,4.39,0,0,1,0-4.07Z" style="fill:#263238"></path><path d="M89.08,399.8a4.39,4.39,0,0,1,4.07,0,4.39,4.39,0,0,1-4.07,0Z" style="fill:#263238"></path><path d="M94.61,405.2a4.37,4.37,0,0,1,0-4.06,4.37,4.37,0,0,1,0,4.06Z" style="fill:#263238"></path><path d="M100,399.67a4.39,4.39,0,0,1-4.07,0,4.39,4.39,0,0,1,4.07,0Z" style="fill:#263238"></path><path d="M245.63,286.66a9.64,9.64,0,0,1,0,6.13,9.64,9.64,0,0,1,0-6.13Z" style="fill:#263238"></path><path d="M237.48,295a9.67,9.67,0,0,1,6.14,0,8.45,8.45,0,0,1-3.07.5A8.7,8.7,0,0,1,237.48,295Z" style="fill:#263238"></path><path d="M245.83,303.15a8.63,8.63,0,0,1-.5-3.07,8.48,8.48,0,0,1,.5-3.07,8.7,8.7,0,0,1,.5,3.07A8.86,8.86,0,0,1,245.83,303.15Z" style="fill:#263238"></path><path d="M254,294.81a9.86,9.86,0,0,1-6.14,0,9.67,9.67,0,0,1,6.14,0Z" style="fill:#263238"></path></g><g id="freepik--speech-bubble--inject-11"><path d="M454.11,77.83a22.07,22.07,0,0,1-36.89,14l-11.05,1.63,5.53-9.55a22.08,22.08,0,1,1,42.41-6Z" style="fill:#fff"></path><path d="M454.11,77.83A22.32,22.32,0,0,1,449.65,89a19.68,19.68,0,0,1-4.33,4.28,22.48,22.48,0,0,1-11.27,4.38,21,21,0,0,1-3.07.06,18.58,18.58,0,0,1-3.06-.32A22.27,22.27,0,0,1,417,92l.26.08-11,1.69-.8.13.4-.71,5.5-9.57,0,.38a22.33,22.33,0,0,1,1.36-19.68A22.55,22.55,0,0,1,419.58,57,22.16,22.16,0,0,1,429,53.45a22,22,0,0,1,18.5,6.15A22.23,22.23,0,0,1,454.11,77.83Zm0,0a22.16,22.16,0,0,0-6.71-18.14,22.41,22.41,0,0,0-8.51-5,21.93,21.93,0,0,0-9.82-.73,21.67,21.67,0,0,0-9.12,3.6,22.76,22.76,0,0,0-6.61,7.2,21.82,21.82,0,0,0-2.8,9.35,22.05,22.05,0,0,0,1.55,9.61l.08.2-.1.18-5.56,9.53-.4-.58,11.06-1.55.15,0,.11.1A21.79,21.79,0,0,0,428,97a18.9,18.9,0,0,0,3,.36,21.74,21.74,0,0,0,3,0,22.1,22.1,0,0,0,5.9-1.3,20.73,20.73,0,0,0,5.32-2.87,24.18,24.18,0,0,0,2.34-2,25.49,25.49,0,0,0,2-2.28A22.14,22.14,0,0,0,454.11,77.83Z" style="fill:#263238"></path><path d="M441.51,79.7a28.86,28.86,0,0,1-9.28,8,28.89,28.89,0,0,1-9.27-8c-3.26-4.33-3.1-11.09,1.57-12.55,5.16-1.62,7.7,6.15,7.7,6.15s2.58-7.82,7.71-6.15C444.59,68.66,444.77,75.37,441.51,79.7Z" style="fill:#FF2758"></path></g></svg>